<mxfile host="app.diagrams.net" modified="2023-05-16T08:31:20.155Z" agent="Mozilla/5.0 (Windows NT 10.0; Win64; x64) AppleWebKit/537.36 (KHTML, like Gecko) Chrome/113.0.0.0 Safari/537.36 Edg/113.0.1774.42" etag="E-5WKBDZXmyqpLZxdIL6" version="21.3.0" type="github">
  <diagram name="第 1 页" id="rcMM6uqmtsIZOEYSC4-f">
    <mxGraphModel dx="928" dy="579" grid="1" gridSize="10" guides="1" tooltips="1" connect="1" arrows="1" fold="1" page="1" pageScale="1" pageWidth="827" pageHeight="1169" math="0" shadow="0">
      <root>
        <mxCell id="0" />
        <mxCell id="1" parent="0" />
        <mxCell id="glxWDRLBS_vmh3QL50GB-7" style="edgeStyle=orthogonalEdgeStyle;rounded=0;orthogonalLoop=1;jettySize=auto;html=1;exitX=1;exitY=0.5;exitDx=0;exitDy=0;entryX=0;entryY=0.5;entryDx=0;entryDy=0;" edge="1" parent="1" source="glxWDRLBS_vmh3QL50GB-1" target="glxWDRLBS_vmh3QL50GB-2">
          <mxGeometry relative="1" as="geometry" />
        </mxCell>
        <mxCell id="glxWDRLBS_vmh3QL50GB-1" value="&lt;font style=&quot;font-size: 14px;&quot;&gt;给良性样本点&lt;br&gt;添加初始随机扰动&lt;br&gt;&lt;/font&gt;" style="rounded=0;whiteSpace=wrap;html=1;" vertex="1" parent="1">
          <mxGeometry x="40" y="80" width="120" height="50" as="geometry" />
        </mxCell>
        <mxCell id="glxWDRLBS_vmh3QL50GB-8" style="edgeStyle=orthogonalEdgeStyle;rounded=0;orthogonalLoop=1;jettySize=auto;html=1;exitX=1;exitY=0.5;exitDx=0;exitDy=0;entryX=0;entryY=0.5;entryDx=0;entryDy=0;entryPerimeter=0;" edge="1" parent="1" source="glxWDRLBS_vmh3QL50GB-2" target="glxWDRLBS_vmh3QL50GB-6">
          <mxGeometry relative="1" as="geometry" />
        </mxCell>
        <mxCell id="glxWDRLBS_vmh3QL50GB-2" value="&lt;font style=&quot;font-size: 14px;&quot;&gt;输入模型得到预测&lt;br&gt;计算DLR损失&lt;br&gt;&lt;/font&gt;" style="rounded=0;whiteSpace=wrap;html=1;" vertex="1" parent="1">
          <mxGeometry x="220" y="80" width="120" height="50" as="geometry" />
        </mxCell>
        <mxCell id="glxWDRLBS_vmh3QL50GB-11" style="edgeStyle=orthogonalEdgeStyle;rounded=0;orthogonalLoop=1;jettySize=auto;html=1;exitX=0;exitY=0.5;exitDx=0;exitDy=0;entryX=1;entryY=0.5;entryDx=0;entryDy=0;entryPerimeter=0;" edge="1" parent="1" source="glxWDRLBS_vmh3QL50GB-4" target="glxWDRLBS_vmh3QL50GB-5">
          <mxGeometry relative="1" as="geometry" />
        </mxCell>
        <mxCell id="glxWDRLBS_vmh3QL50GB-4" value="&lt;font style=&quot;font-size: 14px;&quot;&gt;求梯度并沿梯度方向更新对抗点并投影&lt;/font&gt;" style="rounded=0;whiteSpace=wrap;html=1;" vertex="1" parent="1">
          <mxGeometry x="385" y="230" width="130" height="50" as="geometry" />
        </mxCell>
        <mxCell id="glxWDRLBS_vmh3QL50GB-10" style="edgeStyle=orthogonalEdgeStyle;rounded=0;orthogonalLoop=1;jettySize=auto;html=1;entryX=0.5;entryY=1;entryDx=0;entryDy=0;" edge="1" parent="1" source="glxWDRLBS_vmh3QL50GB-5" target="glxWDRLBS_vmh3QL50GB-2">
          <mxGeometry relative="1" as="geometry" />
        </mxCell>
        <mxCell id="glxWDRLBS_vmh3QL50GB-12" style="edgeStyle=orthogonalEdgeStyle;rounded=0;orthogonalLoop=1;jettySize=auto;html=1;exitX=0;exitY=0.5;exitDx=0;exitDy=0;exitPerimeter=0;" edge="1" parent="1" source="glxWDRLBS_vmh3QL50GB-5">
          <mxGeometry relative="1" as="geometry">
            <mxPoint x="160" y="255" as="targetPoint" />
          </mxGeometry>
        </mxCell>
        <mxCell id="glxWDRLBS_vmh3QL50GB-5" value="&lt;font style=&quot;font-size: 14px;&quot;&gt;迭代完成？&lt;/font&gt;" style="strokeWidth=2;html=1;shape=mxgraph.flowchart.decision;whiteSpace=wrap;" vertex="1" parent="1">
          <mxGeometry x="230" y="220" width="100" height="70" as="geometry" />
        </mxCell>
        <mxCell id="glxWDRLBS_vmh3QL50GB-15" style="edgeStyle=orthogonalEdgeStyle;rounded=0;orthogonalLoop=1;jettySize=auto;html=1;exitX=1;exitY=0.5;exitDx=0;exitDy=0;exitPerimeter=0;entryX=1;entryY=0.5;entryDx=0;entryDy=0;" edge="1" parent="1" source="glxWDRLBS_vmh3QL50GB-6" target="glxWDRLBS_vmh3QL50GB-4">
          <mxGeometry relative="1" as="geometry" />
        </mxCell>
        <mxCell id="glxWDRLBS_vmh3QL50GB-18" style="edgeStyle=orthogonalEdgeStyle;rounded=0;orthogonalLoop=1;jettySize=auto;html=1;exitX=0.5;exitY=1;exitDx=0;exitDy=0;exitPerimeter=0;entryX=0.5;entryY=0;entryDx=0;entryDy=0;" edge="1" parent="1" source="glxWDRLBS_vmh3QL50GB-6" target="glxWDRLBS_vmh3QL50GB-17">
          <mxGeometry relative="1" as="geometry" />
        </mxCell>
        <mxCell id="glxWDRLBS_vmh3QL50GB-6" value="&lt;font style=&quot;font-size: 14px;&quot;&gt;找到首端&lt;br&gt;对抗点？&lt;/font&gt;" style="strokeWidth=2;html=1;shape=mxgraph.flowchart.decision;whiteSpace=wrap;" vertex="1" parent="1">
          <mxGeometry x="400" y="70" width="100" height="70" as="geometry" />
        </mxCell>
        <mxCell id="glxWDRLBS_vmh3QL50GB-14" value="&lt;font style=&quot;font-size: 14px;&quot;&gt;记录末端对抗点&lt;br&gt;并构造对抗域&lt;br&gt;&lt;/font&gt;" style="rounded=0;whiteSpace=wrap;html=1;" vertex="1" parent="1">
          <mxGeometry x="40" y="230" width="120" height="50" as="geometry" />
        </mxCell>
        <mxCell id="glxWDRLBS_vmh3QL50GB-19" style="edgeStyle=orthogonalEdgeStyle;rounded=0;orthogonalLoop=1;jettySize=auto;html=1;exitX=0.5;exitY=1;exitDx=0;exitDy=0;entryX=0.5;entryY=0;entryDx=0;entryDy=0;" edge="1" parent="1" source="glxWDRLBS_vmh3QL50GB-17" target="glxWDRLBS_vmh3QL50GB-4">
          <mxGeometry relative="1" as="geometry" />
        </mxCell>
        <mxCell id="glxWDRLBS_vmh3QL50GB-17" value="&lt;font style=&quot;font-size: 14px;&quot;&gt;记录首端对抗点&lt;/font&gt;" style="rounded=0;whiteSpace=wrap;html=1;" vertex="1" parent="1">
          <mxGeometry x="385" y="170" width="130" height="30" as="geometry" />
        </mxCell>
        <mxCell id="glxWDRLBS_vmh3QL50GB-20" value="&lt;font style=&quot;font-size: 14px;&quot;&gt;是&lt;/font&gt;" style="text;html=1;strokeColor=none;fillColor=none;align=center;verticalAlign=middle;whiteSpace=wrap;rounded=0;" vertex="1" parent="1">
          <mxGeometry x="450" y="140" width="20" height="20" as="geometry" />
        </mxCell>
        <mxCell id="glxWDRLBS_vmh3QL50GB-21" value="&lt;font style=&quot;font-size: 14px;&quot;&gt;否&lt;/font&gt;" style="text;html=1;strokeColor=none;fillColor=none;align=center;verticalAlign=middle;whiteSpace=wrap;rounded=0;" vertex="1" parent="1">
          <mxGeometry x="515" y="140" width="20" height="20" as="geometry" />
        </mxCell>
        <mxCell id="glxWDRLBS_vmh3QL50GB-22" value="&lt;font style=&quot;font-size: 14px;&quot;&gt;否&lt;/font&gt;" style="text;html=1;strokeColor=none;fillColor=none;align=center;verticalAlign=middle;whiteSpace=wrap;rounded=0;" vertex="1" parent="1">
          <mxGeometry x="280" y="175" width="20" height="20" as="geometry" />
        </mxCell>
        <mxCell id="glxWDRLBS_vmh3QL50GB-23" value="&lt;font style=&quot;font-size: 14px;&quot;&gt;是&lt;/font&gt;" style="text;html=1;strokeColor=none;fillColor=none;align=center;verticalAlign=middle;whiteSpace=wrap;rounded=0;" vertex="1" parent="1">
          <mxGeometry x="190" y="230" width="20" height="20" as="geometry" />
        </mxCell>
        <mxCell id="glxWDRLBS_vmh3QL50GB-24" value="&lt;font style=&quot;font-size: 14px;&quot;&gt;(开始)&lt;/font&gt;" style="text;html=1;strokeColor=none;fillColor=none;align=center;verticalAlign=middle;whiteSpace=wrap;rounded=0;" vertex="1" parent="1">
          <mxGeometry x="80" y="130" width="40" height="20" as="geometry" />
        </mxCell>
        <mxCell id="glxWDRLBS_vmh3QL50GB-26" value="&lt;font style=&quot;font-size: 14px;&quot;&gt;(结束)&lt;/font&gt;" style="text;html=1;strokeColor=none;fillColor=none;align=center;verticalAlign=middle;whiteSpace=wrap;rounded=0;" vertex="1" parent="1">
          <mxGeometry x="80" y="210" width="40" height="20" as="geometry" />
        </mxCell>
      </root>
    </mxGraphModel>
  </diagram>
</mxfile>
